<?xml version="1.0" standalone="no"?>
<!DOCTYPE svg PUBLIC "-//W3C//DTD SVG 20010904//EN"
 "http://www.w3.org/TR/2001/REC-SVG-20010904/DTD/svg10.dtd">
<svg version="1.0" xmlns="http://www.w3.org/2000/svg"
 width="196.000000pt" height="196.000000pt" viewBox="0 0 196.000000 196.000000"
 preserveAspectRatio="xMidYMid meet">
<metadata>
Created by potrace 1.14, written by Peter Selinger 2001-2017
</metadata>
<g transform="translate(0.000000,196.000000) scale(0.100000,-0.100000)"
fill="#000000" stroke="none">
<path d="M930 1710 c-19 -11 -51 -27 -70 -36 -19 -9 -38 -21 -41 -26 -3 -5 -9
-9 -13 -9 -10 2 -309 -152 -333 -171 -7 -6 -13 -7 -13 -3 0 5 -8 2 -17 -6 -10
-8 -58 -35 -108 -59 -49 -25 -92 -47 -95 -50 -3 -3 -41 -23 -85 -45 -44 -21
-82 -42 -85 -46 -3 -4 -17 -10 -31 -14 -28 -7 -36 -35 -9 -35 9 0 20 -4 25 -9
9 -8 82 -47 270 -144 33 -18 63 -36 67 -42 9 -12 9 -9 17 108 0 9 8 17 16 17
8 0 15 5 15 10 0 6 3 9 8 8 4 0 25 7 47 16 22 10 60 26 84 37 24 11 46 17 49
15 2 -3 17 1 33 10 16 8 29 12 29 10 0 -3 12 -1 26 4 14 6 49 13 77 16 29 4
74 10 100 14 26 4 50 4 52 0 5 -8 42 -6 51 2 3 4 11 5 18 2 6 -2 37 -6 67 -8
31 -1 60 -5 65 -9 6 -3 22 -4 37 -3 15 2 27 -1 27 -5 0 -5 11 -9 24 -9 13 0
43 -7 67 -16 24 -9 51 -17 59 -18 8 -1 54 -21 103 -44 l87 -41 -4 -50 c-5 -58
5 -69 39 -47 14 9 25 13 25 9 0 -5 4 -3 8 2 8 12 44 32 77 45 23 9 23 7 20
-36 -1 -27 2 -44 8 -44 8 0 8 -3 0 -11 -8 -8 -8 -20 -3 -35 5 -13 6 -25 1 -28
-9 -6 -8 -117 3 -134 4 -6 4 -12 -1 -12 -4 0 -8 -30 -9 -68 0 -59 -6 -79 -47
-163 -26 -53 -47 -101 -47 -107 0 -6 -6 -12 -12 -14 -9 -3 -8 -11 4 -29 22
-32 153 -169 162 -169 15 0 171 172 168 186 -1 7 -23 57 -48 111 -25 54 -49
107 -54 118 -5 11 -8 130 -7 264 l2 244 40 22 c82 43 82 38 8 76 -38 18 -71
39 -75 44 -4 6 -8 6 -8 1 0 -5 -6 -4 -12 2 -7 5 -65 37 -128 70 -63 33 -164
86 -225 117 -408 214 -450 235 -461 235 -5 -1 -25 -10 -44 -20z"/>
<path d="M821 1164 c-1 -6 -7 -11 -13 -11 -34 -2 -94 -16 -102 -23 -5 -5 -14
-6 -21 -4 -7 3 -16 1 -19 -5 -4 -6 -13 -8 -21 -4 -8 3 -15 0 -15 -6 0 -6 -6
-11 -12 -11 -7 0 -32 -8 -56 -17 l-42 -18 0 -90 c-1 -49 -1 -99 0 -110 0 -11
-1 -42 -1 -70 0 -27 0 -57 0 -65 0 -8 1 -41 1 -72 0 -31 4 -60 10 -63 5 -3 10
-2 10 2 0 9 68 8 77 -1 3 -3 14 -1 24 5 11 5 19 6 19 2 0 -5 24 -7 53 -5 28 1
71 2 95 2 43 0 63 0 85 0 6 0 32 0 57 0 25 0 66 0 93 1 26 1 50 -1 54 -4 3 -4
14 -2 24 4 11 5 19 6 19 2 0 -5 24 -7 53 -5 63 3 65 3 97 -1 14 -2 31 1 38 6
6 5 12 6 12 1 0 -10 78 -10 87 0 4 4 8 402 4 454 -1 6 -6 12 -11 12 -6 0 -30
9 -53 20 -24 11 -52 22 -63 24 -10 2 -32 9 -49 16 -16 6 -31 11 -32 11 -2 -1
-4 -1 -5 0 -5 1 -33 7 -73 14 -57 11 -266 14 -292 4 -14 -5 -23 -4 -27 4 -2 7
-5 8 -5 1z"/>
</g>
</svg>
